<svg width="400" height="400" viewBox="0 0 400 400" fill="none" xmlns="http://www.w3.org/2000/svg">
  <rect width="400" height="400" fill="#f8fafc"/>
  <rect x="50" y="50" width="300" height="300" rx="20" fill="#1e293b"/>
  
  <!-- Headphone band -->
  <path d="M120 100 Q200 80 280 100" stroke="#64748b" stroke-width="8" fill="none"/>
  <path d="M120 100 Q200 90 280 100" stroke="#94a3b8" stroke-width="4" fill="none"/>
  
  <!-- Left ear cup -->
  <circle cx="140" cy="180" r="40" fill="#334155"/>
  <circle cx="140" cy="180" r="35" fill="#475569"/>
  <circle cx="140" cy="180" r="25" fill="#1e293b"/>
  
  <!-- Right ear cup -->
  <circle cx="260" cy="180" r="40" fill="#334155"/>
  <circle cx="260" cy="180" r="35" fill="#475569"/>
  <circle cx="260" cy="180" r="25" fill="#1e293b"/>
  
  <!-- Connection arms -->
  <rect x="135" y="130" width="10" height="20" fill="#64748b"/>
  <rect x="255" y="130" width="10" height="20" fill="#64748b"/>
  
  <!-- Brand indicator -->
  <circle cx="200" cy="95" r="8" fill="#3b82f6"/>
  
  <!-- Sound waves -->
  <path d="M100 160 Q90 180 100 200" stroke="#3b82f6" stroke-width="2" fill="none" opacity="0.6"/>
  <path d="M300 160 Q310 180 300 200" stroke="#3b82f6" stroke-width="2" fill="none" opacity="0.6"/>
  <path d="M85 140 Q70 180 85 220" stroke="#3b82f6" stroke-width="2" fill="none" opacity="0.4"/>
  <path d="M315 140 Q330 180 315 220" stroke="#3b82f6" stroke-width="2" fill="none" opacity="0.4"/>
  
  <!-- Label -->
  <text x="200" y="320" text-anchor="middle" fill="#64748b" font-family="Arial, sans-serif" font-size="16" font-weight="600">WIRELESS HEADPHONES</text>
</svg>